<?xml version="1.0" encoding="UTF-8" standalone="no"?>
<svg xmlns="http://www.w3.org/2000/svg" xmlns:xlink="http://www.w3.org/1999/xlink" contentStyleType="text/css" height="562px" preserveAspectRatio="none" style="width:1338px;height:562px;background:#FFFFFF;" version="1.1" viewBox="0 0 1338 562" width="1338px" zoomAndPan="magnify"><defs/><g><rect fill="none" height="90.2031" style="stroke:#000000;stroke-width:1.5;" width="418" x="10" y="98.2969"/><rect fill="none" height="174.4688" style="stroke:#000000;stroke-width:1.5;" width="1321" x="10" y="289.8984"/><line style="stroke:#181818;stroke-width:0.5;stroke-dasharray:5.0,5.0;" x1="68" x2="68" y1="81.2969" y2="481.3672"/><line style="stroke:#181818;stroke-width:0.5;stroke-dasharray:5.0,5.0;" x1="332" x2="332" y1="81.2969" y2="481.3672"/><line style="stroke:#181818;stroke-width:0.5;stroke-dasharray:5.0,5.0;" x1="505" x2="505" y1="81.2969" y2="481.3672"/><line style="stroke:#181818;stroke-width:0.5;stroke-dasharray:5.0,5.0;" x1="859.5" x2="859.5" y1="81.2969" y2="481.3672"/><text fill="#000000" font-family="sans-serif" font-size="14" lengthAdjust="spacing" textLength="91" x="20" y="77.9951">QueryEngine</text><ellipse cx="68.5" cy="13.5" fill="#E2E2F0" rx="8" ry="8" style="stroke:#181818;stroke-width:0.5;"/><path d="M68.5,21.5 L68.5,48.5 M55.5,29.5 L81.5,29.5 M68.5,48.5 L55.5,63.5 M68.5,48.5 L81.5,63.5 " fill="none" style="stroke:#181818;stroke-width:0.5;"/><text fill="#000000" font-family="sans-serif" font-size="14" lengthAdjust="spacing" textLength="91" x="20" y="493.3623">QueryEngine</text><ellipse cx="68.5" cy="505.1641" fill="#E2E2F0" rx="8" ry="8" style="stroke:#181818;stroke-width:0.5;"/><path d="M68.5,513.1641 L68.5,540.1641 M55.5,521.1641 L81.5,521.1641 M68.5,540.1641 L55.5,555.1641 M68.5,540.1641 L81.5,555.1641 " fill="none" style="stroke:#181818;stroke-width:0.5;"/><rect fill="#E2E2F0" height="30.2969" rx="2.5" ry="2.5" style="stroke:#181818;stroke-width:0.5;" width="171" x="247" y="50"/><text fill="#000000" font-family="sans-serif" font-size="14" lengthAdjust="spacing" textLength="157" x="254" y="69.9951">TREEDocumentParser</text><rect fill="#E2E2F0" height="30.2969" rx="2.5" ry="2.5" style="stroke:#181818;stroke-width:0.5;" width="171" x="247" y="480.3672"/><text fill="#000000" font-family="sans-serif" font-size="14" lengthAdjust="spacing" textLength="157" x="254" y="500.3623">TREEDocumentParser</text><rect fill="#E2E2F0" height="30.2969" rx="2.5" ry="2.5" style="stroke:#181818;stroke-width:0.5;" width="154" x="428" y="50"/><text fill="#000000" font-family="sans-serif" font-size="14" lengthAdjust="spacing" textLength="140" x="435" y="69.9951">SPARQLFilterParser</text><rect fill="#E2E2F0" height="30.2969" rx="2.5" ry="2.5" style="stroke:#181818;stroke-width:0.5;" width="154" x="428" y="480.3672"/><text fill="#000000" font-family="sans-serif" font-size="14" lengthAdjust="spacing" textLength="140" x="435" y="500.3623">SPARQLFilterParser</text><rect fill="#E2E2F0" height="30.2969" rx="2.5" ry="2.5" style="stroke:#181818;stroke-width:0.5;" width="59" x="830.5" y="50"/><text fill="#000000" font-family="sans-serif" font-size="14" lengthAdjust="spacing" textLength="45" x="837.5" y="69.9951">Solver</text><rect fill="#E2E2F0" height="30.2969" rx="2.5" ry="2.5" style="stroke:#181818;stroke-width:0.5;" width="59" x="830.5" y="480.3672"/><text fill="#000000" font-family="sans-serif" font-size="14" lengthAdjust="spacing" textLength="45" x="837.5" y="500.3623">Solver</text><path d="M10,98.2969 L76,98.2969 L76,105.4297 L66,115.4297 L10,115.4297 L10,98.2969 " fill="#EEEEEE" style="stroke:#000000;stroke-width:1.5;"/><rect fill="none" height="90.2031" style="stroke:#000000;stroke-width:1.5;" width="418" x="10" y="98.2969"/><text fill="#000000" font-family="sans-serif" font-size="13" font-weight="bold" lengthAdjust="spacing" textLength="21" x="25" y="111.3638">alt</text><text fill="#000000" font-family="sans-serif" font-size="11" font-weight="bold" lengthAdjust="spacing" textLength="251" x="91" y="110.5073">[The TREE relation has an expression]</text><polygon fill="#181818" points="320.5,132.5625,330.5,136.5625,320.5,140.5625,324.5,136.5625" style="stroke:#181818;stroke-width:1.0;"/><line style="stroke:#181818;stroke-width:1.0;" x1="68.5" x2="326.5" y1="136.5625" y2="136.5625"/><text fill="#000000" font-family="sans-serif" font-size="13" lengthAdjust="spacing" textLength="121" x="75.5" y="131.4966">Send TREE relation</text><line style="stroke:#000000;stroke-width:1.0;stroke-dasharray:2.0,2.0;" x1="10" x2="428" y1="145.5625" y2="145.5625"/><text fill="#000000" font-family="sans-serif" font-size="11" font-weight="bold" lengthAdjust="spacing" textLength="244" x="15" y="155.7729">[The TREE relation has no condition]</text><polygon fill="#181818" points="79.5,176.5,69.5,180.5,79.5,184.5,75.5,180.5" style="stroke:#181818;stroke-width:1.0;"/><line style="stroke:#181818;stroke-width:1.0;stroke-dasharray:2.0,2.0;" x1="73.5" x2="331.5" y1="180.5" y2="180.5"/><text fill="#000000" font-family="sans-serif" font-size="13" lengthAdjust="spacing" textLength="240" x="85.5" y="175.4341">Indicate that the node must be follow</text><polygon fill="#181818" points="493,212.6328,503,216.6328,493,220.6328,497,216.6328" style="stroke:#181818;stroke-width:1.0;"/><line style="stroke:#181818;stroke-width:1.0;" x1="68.5" x2="499" y1="216.6328" y2="216.6328"/><text fill="#000000" font-family="sans-serif" font-size="13" lengthAdjust="spacing" textLength="219" x="75.5" y="211.5669">Send the SPARQL filter expression</text><polygon fill="#181818" points="848,241.7656,858,245.7656,848,249.7656,852,245.7656" style="stroke:#181818;stroke-width:1.0;"/><line style="stroke:#181818;stroke-width:1.0;" x1="332.5" x2="854" y1="245.7656" y2="245.7656"/><text fill="#000000" font-family="sans-serif" font-size="13" lengthAdjust="spacing" textLength="250" x="339.5" y="240.6997">Send TREE relation boolean expression</text><polygon fill="#181818" points="848,270.8984,858,274.8984,848,278.8984,852,274.8984" style="stroke:#181818;stroke-width:1.0;"/><line style="stroke:#181818;stroke-width:1.0;" x1="505" x2="854" y1="274.8984" y2="274.8984"/><text fill="#000000" font-family="sans-serif" font-size="13" lengthAdjust="spacing" textLength="331" x="512" y="269.8325">Send the relevant SPARQL filter boolean expression</text><path d="M10,289.8984 L76,289.8984 L76,297.0313 L66,307.0313 L10,307.0313 L10,289.8984 " fill="#EEEEEE" style="stroke:#000000;stroke-width:1.5;"/><rect fill="none" height="174.4688" style="stroke:#000000;stroke-width:1.5;" width="1321" x="10" y="289.8984"/><text fill="#000000" font-family="sans-serif" font-size="13" font-weight="bold" lengthAdjust="spacing" textLength="21" x="25" y="302.9653">alt</text><text fill="#000000" font-family="sans-serif" font-size="11" font-weight="bold" lengthAdjust="spacing" textLength="181" x="91" y="302.1089">[The types are compatible]</text><line style="stroke:#181818;stroke-width:1.0;" x1="860" x2="902" y1="328.1641" y2="328.1641"/><line style="stroke:#181818;stroke-width:1.0;" x1="902" x2="902" y1="328.1641" y2="341.1641"/><line style="stroke:#181818;stroke-width:1.0;" x1="861" x2="902" y1="341.1641" y2="341.1641"/><polygon fill="#181818" points="871,337.1641,861,341.1641,871,345.1641,867,341.1641" style="stroke:#181818;stroke-width:1.0;"/><text fill="#000000" font-family="sans-serif" font-size="13" lengthAdjust="spacing" textLength="452" x="867" y="323.0981">Calculate The solution domain of the SPARQL filter boolean expression</text><line style="stroke:#181818;stroke-width:1.0;" x1="860" x2="902" y1="370.2969" y2="370.2969"/><line style="stroke:#181818;stroke-width:1.0;" x1="902" x2="902" y1="370.2969" y2="383.2969"/><line style="stroke:#181818;stroke-width:1.0;" x1="861" x2="902" y1="383.2969" y2="383.2969"/><polygon fill="#181818" points="871,379.2969,861,383.2969,871,387.2969,867,383.2969" style="stroke:#181818;stroke-width:1.0;"/><text fill="#000000" font-family="sans-serif" font-size="13" lengthAdjust="spacing" textLength="407" x="867" y="365.231">Calculate the solution domain of the TREE relation and the filter</text><polygon fill="#181818" points="79.5,408.4297,69.5,412.4297,79.5,416.4297,75.5,412.4297" style="stroke:#181818;stroke-width:1.0;"/><line style="stroke:#181818;stroke-width:1.0;" x1="73.5" x2="859" y1="412.4297" y2="412.4297"/><text fill="#000000" font-family="sans-serif" font-size="13" lengthAdjust="spacing" textLength="222" x="85.5" y="407.3638">Indicate if the node must be follow</text><line style="stroke:#000000;stroke-width:1.0;stroke-dasharray:2.0,2.0;" x1="10" x2="1331" y1="421.4297" y2="421.4297"/><text fill="#000000" font-family="sans-serif" font-size="11" font-weight="bold" lengthAdjust="spacing" textLength="209" x="15" y="431.6401">[The types are not compatible]</text><polygon fill="#181818" points="79.5,452.3672,69.5,456.3672,79.5,460.3672,75.5,456.3672" style="stroke:#181818;stroke-width:1.0;"/><line style="stroke:#181818;stroke-width:1.0;stroke-dasharray:2.0,2.0;" x1="73.5" x2="859" y1="456.3672" y2="456.3672"/><text fill="#000000" font-family="sans-serif" font-size="13" lengthAdjust="spacing" textLength="340" x="85.5" y="451.3013">Indicate that the solver cannot resolved the equation</text><!--SRC=[ZP9BReD038RtdC8No0MoY1IrLAhKHLuNS0RJZ3JOoJpIvlRrGD900QaRfC7sz_z-e8dYOPl8tqh-j4o00OmqYQt1TGuMw28SJWI7NLc29uVH2iD9yv21li-UGj0_nQ0A5gksu5LCQeZZ1dqWluGzSJKa5UG2pGYmg1UkR9itni52LGQoItZNT8EH89umweSKKX4qAKGu4jJYd7mLwcBiTxzPxxOVRzP5yWE_cT85eMwZ_RQdR2bBt7MwNpYAE1gERgmyOcGFYg0hSlnZPWBus5cydKdtv2cFwQpwHqT5nrsi7lmNT2QvFBDS4iIbrcSb3Le6gIVwd-gXfVLzFxbndZkS3TuxxMHwpBajstf-nu-xUWw19VO60R_y_vnHw78DSgPer_dTkQLBkfyoLpy0]--></g></svg>